<?xml version="1.0" standalone="no"?>
<!DOCTYPE svg PUBLIC "-//W3C//DTD SVG 20010904//EN"
 "http://www.w3.org/TR/2001/REC-SVG-20010904/DTD/svg10.dtd">
<svg version="1.0" xmlns="http://www.w3.org/2000/svg"
 width="500.000000pt" height="500.000000pt" viewBox="0 0 500.000000 500.000000"
 preserveAspectRatio="xMidYMid meet">

<g transform="translate(0.000000,500.000000) scale(0.100000,-0.100000)"
fill="#000000" stroke="none">
<path d="M2430 4820 c-48 -20 -779 -292 -1250 -467 -157 -58 -288 -108 -292
-112 -4 -3 108 -49 250 -102 l257 -95 3 -104 c2 -94 1 -105 -19 -126 -17 -18
-20 -30 -15 -56 4 -18 11 -80 16 -138 8 -90 5 -151 -21 -420 -16 -173 -28
-325 -25 -336 11 -41 110 -58 166 -29 38 20 38 13 1 400 -27 291 -31 468 -10
490 16 17 10 71 -11 90 -17 16 -20 31 -20 107 0 67 3 88 13 88 8 0 242 -85
520 -190 l507 -190 657 246 c362 135 726 271 810 302 84 31 149 59 145 63 -4
3 -216 84 -472 179 -256 95 -614 228 -796 296 -183 68 -340 124 -350 123 -11
-1 -39 -9 -64 -19z"/>
<path d="M1672 3668 l3 -193 32 -68 c183 -386 1028 -482 1448 -164 72 54 107
98 143 175 26 55 27 65 30 250 3 123 0 192 -6 192 -6 0 -190 -67 -411 -150
-221 -82 -406 -150 -412 -150 -5 0 -190 68 -411 150 -220 83 -405 150 -410
150 -6 0 -9 -70 -6 -192z"/>
<path d="M890 2540 l0 -40 1610 0 1610 0 0 40 0 40 -1610 0 -1610 0 0 -40z"/>
<path d="M1051 2110 c-78 -19 -124 -84 -142 -199 -7 -47 -9 -164 -7 -325 5
-280 13 -318 71 -373 73 -69 207 -71 270 -6 45 48 59 98 65 231 l5 122 -71 0
-70 0 -4 -120 c-3 -107 -5 -122 -25 -141 -27 -27 -65 -20 -81 16 -8 18 -12
119 -12 328 0 340 2 351 63 345 45 -4 57 -35 57 -150 l0 -98 70 0 70 0 0 79
c0 200 -51 282 -183 296 -23 2 -57 0 -76 -5z"/>
<path d="M3842 2106 c-56 -18 -71 -32 -95 -86 -15 -33 -21 -66 -21 -125 1
-104 26 -156 139 -276 46 -50 90 -106 97 -125 11 -31 15 -34 53 -34 22 0 53
-7 69 -15 39 -20 39 -21 31 28 -12 71 -54 142 -145 244 -104 118 -110 128
-110 192 0 77 42 112 89 74 18 -15 23 -33 28 -101 l6 -83 61 3 61 3 3 39 c5
56 -16 168 -38 204 -11 17 -32 38 -49 46 -43 23 -128 28 -179 12z"/>
<path d="M1515 2078 c-12 -69 -125 -873 -125 -890 0 -16 9 -18 64 -18 73 0 68
-6 82 113 l6 58 77 -3 76 -3 10 -80 10 -80 68 -3 c66 -3 67 -2 62 20 -3 13
-34 219 -70 458 -36 239 -67 441 -70 448 -3 8 -31 12 -94 12 l-90 0 -6 -32z
m129 -368 c15 -113 29 -217 32 -232 l6 -28 -61 0 c-73 0 -70 -25 -36 245 14
110 25 206 25 214 0 44 11 -17 34 -199z"/>
<path d="M1950 1640 l0 -470 60 0 61 0 -3 324 c-2 178 -1 322 1 320 3 -2 32
-145 66 -317 l60 -312 57 -3 c53 -3 58 -1 63 20 2 13 16 86 30 163 41 223 86
449 89 452 2 2 1 -142 -2 -319 l-5 -323 66 70 66 70 -2 395 -2 395 -83 3 c-77
3 -83 2 -91 -20 -6 -13 -35 -165 -66 -338 -49 -272 -65 -350 -65 -316 0 9
-117 618 -125 654 -5 21 -10 22 -90 22 l-85 0 0 -470z"/>
<path d="M2707 2103 c-4 -3 -7 -161 -7 -350 0 -272 3 -344 13 -339 6 3 38 13
69 23 l58 18 0 43 0 42 63 0 c88 1 138 25 166 82 30 63 44 191 31 286 -17 126
-54 176 -141 193 -53 10 -243 12 -252 2z m228 -128 c24 -23 25 -30 25 -147 0
-150 -8 -168 -76 -168 l-44 0 0 170 0 170 35 0 c25 0 44 -8 60 -25z"/>
<path d="M3199 2093 c-2 -10 -2 -193 1 -408 5 -364 6 -393 25 -430 36 -71 119
-106 219 -91 62 10 107 43 136 101 l25 50 0 395 0 395 -67 3 -67 3 -3 -395
c-3 -371 -4 -395 -22 -415 -23 -25 -68 -27 -87 -4 -11 13 -15 97 -19 412 l-5
396 -66 3 c-57 2 -67 0 -70 -15z"/>
<path d="M3723 1504 c-9 -24 13 -208 29 -238 l14 -27 47 71 c45 67 47 74 47
140 l0 70 -65 0 c-51 0 -67 -4 -72 -16z"/>
<path d="M2775 1386 c-84 -31 -147 -73 -222 -147 -151 -149 -237 -346 -204
-467 49 -178 361 -189 583 -18 l46 35 7 -26 c8 -35 53 -73 86 -73 49 0 80 19
160 97 74 72 78 74 69 42 -11 -39 -13 -99 -4 -124 10 -26 51 -37 96 -24 28 7
64 33 122 90 62 59 90 79 110 79 34 0 40 22 -87 -295 -123 -310 -118 -290 -81
-281 55 13 80 58 114 206 12 51 110 323 130 361 6 10 28 19 62 23 146 20 202
51 70 39 l-67 -6 85 84 c171 170 250 282 250 355 0 52 -25 74 -84 74 -79 0
-137 -61 -223 -235 -27 -55 -65 -138 -83 -185 -38 -99 -44 -107 -63 -92 -24
20 -93 -8 -83 -34 6 -16 -126 -142 -159 -150 -14 -3 -32 -3 -41 0 -26 10 -12
100 25 175 18 34 29 66 26 71 -17 28 -55 6 -145 -86 -155 -155 -222 -195 -236
-140 -14 58 105 203 210 255 58 28 125 38 155 22 28 -16 28 3 -1 23 -34 24
-114 20 -173 -8 -71 -33 -160 -104 -233 -185 -74 -83 -175 -139 -298 -167
-138 -30 -243 -8 -280 61 -92 172 253 620 496 642 62 6 85 -12 84 -67 -2 -48
-55 -133 -110 -175 -48 -37 -131 -72 -187 -80 -49 -7 -66 -20 -50 -36 5 -5 32
-3 66 6 195 51 361 220 317 324 -26 63 -143 80 -255 37z m1295 -39 c0 -39 -47
-117 -145 -242 -67 -85 -191 -212 -199 -204 -10 9 106 236 170 331 70 106 113
148 150 148 21 0 24 -5 24 -33z"/>
<path d="M3950 1231 c-50 -74 -53 -94 -4 -26 40 57 57 85 50 85 -3 0 -23 -27
-46 -59z"/>
<path d="M2768 1268 c-48 -33 -64 -49 -66 -70 l-3 -28 70 0 71 0 0 70 c0 39
-2 70 -4 70 -2 0 -33 -19 -68 -42z"/>
<path d="M4094 1014 c-70 -42 -157 -125 -179 -170 -17 -37 -20 -97 -5 -125 29
-53 140 -65 228 -24 29 13 69 37 89 52 40 31 117 123 109 131 -3 3 -31 -22
-63 -55 -94 -97 -234 -155 -288 -119 -50 33 -18 123 75 217 87 88 170 122 170
70 0 -38 -114 -129 -183 -146 -39 -10 -34 -28 6 -20 57 11 156 65 182 99 27
36 34 93 13 114 -24 24 -91 14 -154 -24z"/>
</g>
</svg>
